Coordinates
version=1
nRows=12
nColumns=24
inDegrees=yes

Units are S.I. units (second, meters, Newtons, ...)
Angles are in degrees.

endheader
time	pelvis_tilt	pelvis_list	pelvis_rotation	pelvis_tx	pelvis_ty	pelvis_tz	hip_flexion_r	hip_adduction_r	hip_rotation_r	knee_angle_r	ankle_angle_r	subtalar_angle_r	mtp_angle_r	hip_flexion_l	hip_adduction_l	hip_rotation_l	knee_angle_l	ankle_angle_l	subtalar_angle_l	mtp_angle_l	lumbar_extension	lumbar_bending	lumbar_rotation
      0.25400000	     -7.10498595	      5.12668049	     -1.78952600	     -0.79332425	      1.02734640	      0.30829307	     34.98803283	     -2.87752931	      0.08870988	     -6.32270774	      6.57998376	     -2.40731533	     11.92239793	    -13.58394250	      6.20454226	      6.84098099	      0.34296651	     10.20027755	     -3.01251649	      6.41889487	    -11.75652957	     -3.44758026	     -4.92985723
      0.25816667	     -7.09477341	      5.14219744	     -1.74513790	     -0.78717495	      1.02651780	      0.30850487	     35.03991756	     -2.85261161	      0.30514396	     -6.81785788	      6.49582706	     -2.65496680	     11.91991468	    -13.68517963	      6.21588092	      6.72462080	     -0.23256888	     10.41198904	     -2.63047527	      6.47846964	    -11.73729131	     -3.35001718	     -4.95349161
      0.26233333	     -7.07188392	      5.15787003	     -1.70316427	     -0.78099109	      1.02573886	      0.30872517	     35.07454332	     -2.82780721	      0.51374435	     -7.36157390	      6.38322954	     -2.90238958	     11.92426156	    -13.78776976	      6.22776302	      6.59849319	     -0.83228100	     10.63138284	     -2.19874209	      6.57189544	    -11.74206174	     -3.25724107	     -4.96221625
      0.26650000	     -7.05232218	      5.15147951	     -1.65525129	     -0.77474856	      1.02500427	      0.30893372	     35.09819449	     -2.78673801	      0.68418723	     -7.93283625	      6.22196919	     -3.17229738	     11.93527040	    -13.85308625	      6.21661788	      6.39379591	     -1.51367083	     10.84893035	     -1.71498172	      6.70949608	    -11.72373358	     -3.12661603	     -4.96391937
      0.27066667	     -7.03972334	      5.15013944	     -1.60433211	     -0.76845300	      1.02430001	      0.30915697	     35.11890524	     -2.75076680	      0.85720181	     -8.52898940	      6.01854378	     -3.45052818	     11.95210358	    -13.90813929	      6.20726115	      6.22475488	     -2.19506458	     11.03606792	     -1.25958978	      6.86671784	    -11.69466395	     -3.00454453	     -4.96687120
      0.27483333	     -7.02116095	      5.13445812	     -1.55050795	     -0.76211655	      1.02366174	      0.30938023	     35.11492910	     -2.70451862	      1.01166513	     -9.12851687	      5.76149532	     -3.75051162	     11.97668731	    -13.92951626	      6.18245593	      5.96940841	     -2.96877971	     11.23098320	     -0.71731132	      7.07299288	    -11.66951380	     -2.85862981	     -4.95758045
      0.27900000	     -6.99864646	      5.11575360	     -1.49511339	     -0.75573508	      1.02307459	      0.30961325	     35.09729411	     -2.65838953	      1.14555114	     -9.74182415	      5.45993438	     -4.04014493	     12.00748651	    -13.94039071	      6.15147743	      5.70667936	     -3.76521646	     11.39794500	     -0.17253639	      7.32217813	    -11.64821550	     -2.70948666	     -4.94776437
      0.28316667	     -6.98097667	      5.09150238	     -1.44000474	     -0.74932206	      1.02252419	      0.30985251	     35.08092481	     -2.60785403	      1.25511221	    -10.37610864	      5.10737763	     -4.35060832	     12.03835606	    -13.92535023	      6.11257266	      5.41344432	     -4.60791418	     11.55144472	      0.40266023	      7.59030113	    -11.61416683	     -2.55423860	     -4.93673296
      0.28733333	     -6.97361430	      5.05981607	     -1.37933312	     -0.74287139	      1.02201888	      0.31009427	     35.06424974	     -2.55560243	      1.33928072	    -11.01172627	      4.71151490	     -4.65371767	     12.06820482	    -13.86825206	      6.06184950	      5.08593892	     -5.51331018	     11.68158095	      0.99698719	      7.87394077	    -11.56131240	     -2.38955123	     -4.91891968
      0.29150000	     -6.96955694	      5.02590489	     -1.31476460	     -0.73640009	      1.02157022	      0.31035136	     35.04055849	     -2.50481639	      1.41357165	    -11.64322096	      4.28448886	     -4.94875683	     12.10048668	    -13.76625327	      6.00242891	      4.69347693	     -6.49733377	     11.79515897	      1.65963483	      8.21886186	    -11.50817416	     -2.21825424	     -4.89789150
      0.29566667	     -6.95370760	      4.98085783	     -1.25272056	     -0.72990938	      1.02118895	      0.31062246	     35.00033783	     -2.44594729	      1.45811240	    -12.28126256	      3.81616285	     -5.24977498	     12.12761745	    -13.65989819	      5.92629219	      4.27831068	     -7.51508168	     11.88137431	      2.33291053	      8.58683138	    -11.46780551	     -2.03562027	     -4.86455076
      0.29983333	     -6.94293423	      4.93079016	     -1.18730020	     -0.72340855	      1.02085696	      0.31089943	     34.96458465	     -2.38828949	      1.47466409	    -12.92961720	      3.33379947	     -5.52315259	     12.15008460	    -13.51066421	      5.83789089	      3.82397714	     -8.60550065	     11.93410270	      3.03386240	      8.97809723	    -11.41971602	     -1.84585487	     -4.83117138
